HIERARCHY
ROOT Hips
{
	OFFSET 0.00000 0.00000 0.00000
	CHANNELS 6 Xposition Yposition Zposition Zrotation Yrotation Xrotation 
	JOINT LHipJoint
	{
		OFFSET 0 0 0
		CHANNELS 3 Zrotation Yrotation Xrotation
		JOINT LeftUpLeg
		{
			OFFSET 1.57314 -1.85774 0.63783
			CHANNELS 3 Zrotation Yrotation Xrotation
			JOINT LeftLeg
			{
				OFFSET 2.57982 -7.08799 0.00000
				CHANNELS 3 Zrotation Yrotation Xrotation
				JOINT LeftFoot
				{
					OFFSET 2.63993 -7.25315 0.00000
					CHANNELS 3 Zrotation Yrotation Xrotation
					JOINT LeftToeBase
					{
						OFFSET 0.16864 -0.46332 2.12791
						CHANNELS 3 Zrotation Yrotation Xrotation
						End Site
						{
							OFFSET 0.00000 -0.00000 1.09718
						}
					}
				}
			}
		}
	}
	JOINT RHipJoint
	{
		OFFSET 0 0 0
		CHANNELS 3 Zrotation Yrotation Xrotation
		JOINT RightUpLeg
		{
			OFFSET -1.56006 -1.85774 0.63784
			CHANNELS 3 Zrotation Yrotation Xrotation
			JOINT RightLeg
			{
				OFFSET -2.54246 -6.98536 0.00000
				CHANNELS 3 Zrotation Yrotation Xrotation
				JOINT RightFoot
				{
					OFFSET -2.65791 -7.30256 0.00000
					CHANNELS 3 Zrotation Yrotation Xrotation
					JOINT RightToeBase
					{
						OFFSET -0.18435 -0.50650 2.16316
						CHANNELS 3 Zrotation Yrotation Xrotation
						End Site
						{
							OFFSET -0.00000 -0.00000 1.11780
						}
					}
				}
			}
		}
	}
	JOINT LowerBack
	{
		OFFSET 0 0 0
		CHANNELS 3 Zrotation Yrotation Xrotation
		JOINT Spine
		{
			OFFSET -0.00136 1.92812 -0.29638
			CHANNELS 3 Zrotation Yrotation Xrotation
			JOINT Spine1
			{
				OFFSET -0.00528 1.96223 -0.02928
				CHANNELS 3 Zrotation Yrotation Xrotation
				JOINT Neck
				{
					OFFSET 0 0 0
					CHANNELS 3 Zrotation Yrotation Xrotation
					JOINT Neck1
					{
						OFFSET -0.01015 1.75586 0.07797
						CHANNELS 3 Zrotation Yrotation Xrotation
						JOINT Head
						{
							OFFSET 0.05540 1.72452 0.04558
							CHANNELS 3 Zrotation Yrotation Xrotation
							End Site
							{
								OFFSET 0.02170 1.79958 0.00864
							}
						}
					}
				}
				JOINT LeftShoulder
				{
					OFFSET 0 0 0
					CHANNELS 3 Zrotation Yrotation Xrotation
					JOINT LeftArm
					{
						OFFSET 3.16292 1.29277 -0.65728
						CHANNELS 3 Zrotation Yrotation Xrotation
						JOINT LeftForeArm
						{
							OFFSET 5.52302 -0.00000 -0.00000
							CHANNELS 3 Zrotation Yrotation Xrotation
							JOINT LeftHand
							{
								OFFSET 3.58675 -0.00000 -0.00000
								CHANNELS 3 Zrotation Yrotation Xrotation
								JOINT LeftFingerBase
								{
									OFFSET 0 0 0
									CHANNELS 3 Zrotation Yrotation Xrotation
									JOINT LeftHandIndex1
									{
										OFFSET 0.53641 -0.00000 -0.00000
										CHANNELS 3 Zrotation Yrotation Xrotation
										End Site
										{
											OFFSET 0.43247 -0.00000 -0.00000
										}
									}
								}
								JOINT LThumb
								{
									OFFSET 0 0 0
									CHANNELS 3 Zrotation Yrotation Xrotation
									End Site
									{
										OFFSET 0.43907 -0.00000 0.43907
									}
								}
							}
						}
					}
				}
				JOINT RightShoulder
				{
					OFFSET 0 0 0
					CHANNELS 3 Zrotation Yrotation Xrotation
					JOINT RightArm
					{
						OFFSET -3.08296 1.43376 -0.52927
						CHANNELS 3 Zrotation Yrotation Xrotation
						JOINT RightForeArm
						{
							OFFSET -5.84780 -0.00000 0.00000
							CHANNELS 3 Zrotation Yrotation Xrotation
							JOINT RightHand
							{
								OFFSET -3.62717 -0.00000 -0.00000
								CHANNELS 3 Zrotation Yrotation Xrotation
								JOINT RightFingerBase
								{
									OFFSET 0 0 0
									CHANNELS 3 Zrotation Yrotation Xrotation
									JOINT RightHandIndex1
									{
										OFFSET -0.65052 -0.00000 -0.00000
										CHANNELS 3 Zrotation Yrotation Xrotation
										End Site
										{
											OFFSET -0.52446 -0.00000 -0.00000
										}
									}
								}
								JOINT RThumb
								{
									OFFSET 0 0 0
									CHANNELS 3 Zrotation Yrotation Xrotation
									End Site
									{
										OFFSET -0.53247 -0.00000 0.53247
									}
								}
							}
						}
					}
				}
			}
		}
	}
}
MOTION
Frames: 16
Frame Time: .0083333
9.9935 18.0169 -23.4822 0 0 0 0 0 0 -21 0 0 0 0 0 0 0 0 0 0 0 0 0 0 21 0 0 0 0 0 0 0 0 0 0 0 0 0 0 0 0 0 0 0 0 0 0 -16 0 0 21 0 0 11 0 0 0 -8 0 0 0 0 0 0 0 0 0 0 0 0 0 0 0 0 0 0 0 0 8 0 0 0 0 0 0 0 0 0 0 0 0 0 0 0 0 0
9.9935 18.0169 -23.4822 4.8398 -28.0158 2.2599 0.0000 0.0000 0.0000 -28.0540 -3.8861 4.3234 0.7493 5.5290 15.4237 0.3507 1.8836 -12.0343 1.6500 -8.0955 -23.0046 0.0000 0.0000 0.0000 10.9360 19.2966 -25.2282 -4.0368 -12.2093 36.4763 0.3921 -14.6313 -15.6608 -0.0072 0.5488 -1.5081 -5.2888 -1.4835 12.1188 -0.9709 -2.7272 1.7830 2.3925 -1.2714 -4.7198 0.5333 1.7373 -4.0984 0.6891 2.2436 5.0578 0.1991 1.1450 2.2898 -0.0000 -0.0000 0.0000 -76.4418 -22.6193 31.9811 13.9744 -22.6981 -2.8182 -0.0000 0.0000 -9.0682 37.0176 14.2949 10.5467 -7.1250 0.0000 -0.0000 9.2203 47.4643 0.5652 -0.0000 -0.0000 0.0000 84.1914 -3.5103 23.4995 -15.1837 24.4014 -3.3015 0.0000 0.0000 14.0946 -22.1532 12.9004 -5.1937 7.1250 -0.0000 -0.0000 3.5516 -16.1073 2.4316
9.9143 18.0239 -23.3385 4.5592 -27.9499 2.5059 0.0000 0.0000 0.0000 -27.7476 -3.6879 5.0555 0.6914 5.3159 14.8117 0.3366 1.6491 -11.6869 1.5953 -7.9667 -22.6129 0.0000 0.0000 0.0000 10.9967 19.8417 -25.0795 -3.4957 -11.4573 33.8381 0.4768 -15.2520 -15.5156 -0.0032 0.3647 -1.0021 -4.7594 -1.4356 12.0300 -1.1085 -2.5976 1.7663 1.9293 -1.2169 -4.7287 1.4281 1.8630 -4.3263 0.5605 2.3605 4.7601 0.0103 1.2157 2.2469 -0.0000 -0.0000 0.0000 -75.7483 -23.0011 33.5167 14.3979 -23.3006 -2.9837 -0.0000 0.0000 -10.1293 37.1917 13.9369 10.3572 -7.1250 0.0000 -0.0000 9.3816 47.0622 0.4815 -0.0000 -0.0000 0.0000 84.7913 -3.6734 22.2659 -14.9606 24.0912 -3.2099 0.0000 0.0000 15.2226 -21.1425 14.6037 -5.5690 7.1250 -0.0000 -0.0000 4.3229 -14.4033 3.1208
9.8341 18.0357 -23.1903 4.4932 -28.2018 2.7220 0.0000 0.0000 0.0000 -27.7632 -3.2096 5.6233 0.6419 5.1256 14.2671 0.3237 1.5428 -11.4220 1.6399 -8.0718 -22.9325 0.0000 0.0000 0.0000 10.7801 20.6545 -25.0250 -3.0232 -10.7326 31.3832 0.5184 -15.2770 -14.8359 -0.0008 0.1868 -0.5133 -4.5730 -1.4635 11.6383 -1.0967 -2.5857 1.7943 1.8207 -1.2206 -4.4907 1.6320 2.0913 -4.4736 0.4476 2.6572 4.5641 -0.0498 1.3631 2.2155 0.0000 0.0000 0.0000 -75.3713 -23.1982 34.0746 14.8261 -23.9033 -3.1551 -0.0000 0.0000 -10.5757 37.5949 13.0492 9.8622 -7.1250 0.0000 -0.0000 9.7401 46.0531 0.2556 0.0000 0.0000 0.0000 84.8527 -3.7603 22.0840 -14.8482 23.9342 -3.1641 0.0000 0.0000 15.5434 -20.4267 14.4908 -5.3240 7.1250 -0.0000 -0.0000 4.8043 -14.5997 3.4506
9.7525 18.0363 -23.0541 4.5527 -28.8325 2.8776 0.0000 0.0000 0.0000 -27.8605 -2.3802 6.0875 0.5852 4.8981 13.6182 0.2952 1.7017 -11.0292 1.8281 -8.4984 -24.2384 0.0000 0.0000 0.0000 10.4112 21.7849 -24.9566 -2.5734 -9.9702 28.8803 0.5210 -14.7065 -13.4420 -0.0006 -0.1569 0.4310 -4.7124 -1.4910 11.1916 -0.9693 -2.6045 1.8472 2.0168 -1.2361 -4.1741 1.1162 2.3054 -4.4302 0.5438 2.9735 4.5016 0.0774 1.5140 2.1782 -0.0000 0.0000 0.0000 -75.1080 -23.3366 33.7287 15.2963 -24.5573 -3.3481 -0.0000 0.0000 -10.7551 37.7660 12.9922 9.8803 -7.1250 0.0000 -0.0000 9.9036 46.0111 0.2496 -0.0000 0.0000 0.0000 84.5847 -3.5688 22.3617 -14.5790 23.5563 -3.0557 0.0000 0.0000 15.7807 -20.1994 14.5785 -5.2909 7.1250 -0.0000 -0.0000 4.9626 -14.5314 3.5723
9.6672 18.0361 -22.9392 4.6507 -29.0128 3.0880 0.0000 0.0000 0.0000 -27.8252 -2.0392 6.6255 0.5229 4.6345 12.8689 0.2557 1.8903 -10.4368 2.0448 -8.9589 -25.6667 0.0000 0.0000 0.0000 9.9228 22.9742 -24.9656 -2.1785 -9.2284 26.5123 0.5831 -14.7868 -12.2278 -0.0008 -0.1794 0.4929 -5.1513 -1.7158 11.0884 -0.5912 -2.9331 1.7043 2.7012 -1.3862 -4.2019 0.1289 2.6820 -3.8919 0.7124 3.5381 3.8598 0.2985 1.7820 1.8502 0.0000 -0.0000 0.0000 -75.1307 -23.2242 33.2246 15.7481 -25.1779 -3.5381 -0.0000 0.0000 -11.2388 37.7790 12.9681 9.8672 -7.1250 0.0000 -0.0000 9.9150 45.9838 0.2431 0.0000 -0.0000 0.0000 83.8846 -3.5136 23.1319 -14.3360 23.2130 -2.9592 0.0000 0.0000 15.8440 -20.1549 15.0492 -5.4438 7.1250 -0.0000 -0.0000 5.0127 -14.0415 3.6610
9.5821 18.0347 -22.7829 4.7873 -29.4054 3.1274 0.0000 0.0000 0.0000 -28.0230 -1.3702 7.3009 0.4717 4.4050 12.2189 0.2330 1.9905 -10.0730 2.1687 -9.2089 -26.4511 0.0000 0.0000 0.0000 9.3919 24.2569 -24.6946 -1.8338 -8.5109 24.2768 0.6262 -14.9349 -11.5320 -0.0002 -0.0874 0.2403 -5.3614 -1.7353 10.8608 -0.4062 -2.9615 1.6589 3.0068 -1.3983 -4.1000 -0.5701 2.4538 -4.1061 0.6696 3.2730 4.8879 0.4112 1.6361 2.2153 -0.0000 -0.0000 0.0000 -75.2738 -22.9733 33.1372 16.2788 -25.8973 -3.7669 -0.0000 0.0000 -11.4510 37.9551 12.5231 9.5999 -7.1250 0.0000 -0.0000 10.0610 45.4688 0.1176 -0.0000 -0.0000 0.0000 83.5320 -3.6297 23.2778 -14.1956 23.0136 -2.9041 0.0000 0.0000 16.1792 -19.8207 15.6108 -5.5399 7.1250 -0.0000 -0.0000 5.2628 -13.4891 3.9069
9.4978 18.0352 -22.6264 4.7750 -29.7170 3.1631 0.0000 0.0000 0.0000 -28.0589 -0.7195 8.1184 0.4159 4.1394 11.4693 0.2048 2.1281 -9.6046 2.3912 -9.6373 -27.8102 0.0000 0.0000 0.0000 8.9547 25.6125 -24.2798 -1.5499 -7.8579 22.2833 0.6125 -14.8160 -11.5360 -0.0030 -0.3515 0.9659 -5.3286 -1.6827 10.7837 -0.3419 -2.8801 1.6612 3.0414 -1.3596 -4.0603 0.0256 2.8611 -4.4109 0.2630 3.8033 4.3420 0.1980 1.9012 2.1074 0.0000 -0.0000 0.0000 -75.4109 -22.7219 33.0481 16.8337 -26.6380 -4.0125 -0.0000 0.0000 -11.2425 38.0837 12.2413 9.4338 -7.1250 0.0000 -0.0000 10.1677 45.1438 0.0365 0.0000 -0.0000 0.0000 83.5162 -3.8055 23.0756 -14.1301 22.9204 -2.8786 0.0000 0.0000 16.5264 -19.2654 15.8149 -5.4413 7.1250 -0.0000 -0.0000 5.6448 -13.3369 4.2114
9.4102 18.0302 -22.4776 4.6342 -29.8636 3.1670 0.0000 0.0000 0.0000 -27.8704 -0.1287 9.2369 0.3387 3.7402 10.3468 0.1639 2.2743 -8.8383 2.8072 -10.3762 -30.2039 0.0000 0.0000 0.0000 9.0101 25.5632 -24.2252 -1.3419 -7.3343 20.7096 0.4591 -13.3686 -11.4464 -0.0060 -0.5002 1.3744 -5.0577 -1.6767 10.7274 -0.3174 -2.8348 1.7172 2.9054 -1.3442 -3.9865 -0.8118 1.8623 -4.4057 0.1984 2.5266 6.7221 0.3009 1.2365 2.8928 -0.0000 -0.0000 0.0000 -75.2582 -22.6993 33.2863 17.3150 -27.2712 -4.2307 -0.0000 0.0000 -11.6258 37.8749 12.6501 9.6664 -7.1250 0.0000 -0.0000 9.9908 45.6114 0.1523 -0.0000 -0.0000 0.0000 83.5327 -4.0456 23.2470 -14.1351 22.9275 -2.8805 0.0000 0.0000 16.4003 -19.1260 15.6076 -5.3304 7.1250 -0.0000 -0.0000 5.7301 -13.5683 4.2476
9.3193 18.0185 -22.3295 4.8735 -29.9545 2.9358 0.0000 0.0000 0.0000 -27.9776 0.4171 10.4428 0.2656 3.3153 9.1577 0.1255 2.3467 -7.9854 3.2599 -11.1043 -32.6324 0.0000 0.0000 0.0000 8.7807 25.4731 -24.2573 -1.1858 -6.9107 19.4511 0.3405 -12.1844 -11.4712 -0.0022 -0.3038 0.8348 -5.0491 -1.7336 10.5447 -0.4175 -2.9000 1.8276 2.7938 -1.3857 -3.7698 -1.1541 2.0256 -3.8741 0.7119 2.7287 5.8491 0.5145 1.3501 2.4870 0.0000 0.0000 0.0000 -74.9638 -22.7432 33.3729 17.6920 -27.7610 -4.4048 -0.0000 0.0000 -12.3342 37.6422 12.7949 9.6930 -7.1250 0.0000 -0.0000 9.7734 45.7513 0.1830 0.0000 0.0000 0.0000 83.6040 -4.1200 23.2655 -13.9812 22.7079 -2.8209 0.0000 0.0000 16.4639 -19.2852 15.4525 -5.3262 7.1250 -0.0000 -0.0000 5.6167 -13.7130 4.1455
9.2255 18.0042 -22.1649 5.3350 -30.0675 2.5607 0.0000 0.0000 0.0000 -28.3195 1.0252 11.7347 0.1991 2.8734 7.9264 0.0930 2.3959 -7.1629 3.4305 -11.3613 -33.5082 0.0000 0.0000 0.0000 8.4092 25.3699 -24.2299 -1.0694 -6.5739 18.4591 0.2198 -11.0218 -11.7926 -0.0021 0.2933 -0.8058 -5.3350 -1.8148 10.3944 -0.4843 -3.0301 1.9286 2.8910 -1.4558 -3.5587 -1.2844 2.1854 -3.8332 0.7855 2.9465 5.5605 0.5630 1.4593 2.3783 -0.0000 0.0000 0.0000 -74.9637 -22.4209 33.1668 18.1206 -28.3113 -4.6063 -0.0000 0.0000 -12.8730 37.6751 12.8296 9.7297 -7.1250 0.0000 -0.0000 9.8071 45.7988 0.1952 -0.0000 0.0000 0.0000 83.4649 -4.2382 23.5576 -13.8704 22.5491 -2.7782 0.0000 0.0000 16.3704 -19.2450 15.0551 -5.1815 7.1250 -0.0000 -0.0000 5.6285 -14.1322 4.1041
9.1308 17.9905 -21.9988 5.3500 -30.4374 2.4635 0.0000 0.0000 0.0000 -28.2855 1.9113 13.0052 0.1352 2.3696 6.5282 0.0622 2.4679 -6.2864 3.2122 -11.0309 -32.3842 0.0000 0.0000 0.0000 8.4987 25.6053 -24.2300 -0.9889 -6.3292 17.7426 0.1234 -10.1149 -12.1825 -0.0438 1.3505 -3.7139 -5.3167 -1.7070 10.3096 -0.4180 -2.8771 1.9345 2.9271 -1.3815 -3.5162 -1.0431 2.2039 -4.2388 0.4366 2.9823 5.9138 0.4227 1.4701 2.5792 0.0000 -0.0000 0.0000 -75.1389 -22.1198 33.2111 18.5324 -28.8335 -4.8032 -0.0000 0.0000 -13.3264 37.5873 13.0546 9.8634 -7.1250 0.0000 -0.0000 9.7330 46.0583 0.2566 0.0000 -0.0000 0.0000 83.2488 -4.6347 23.9117 -13.8843 22.5690 -2.7835 0.0000 0.0000 16.0451 -19.1170 14.6145 -4.9981 7.1250 -0.0000 -0.0000 5.6996 -14.6054 4.0989
9.0415 17.9800 -21.8393 5.2169 -30.5809 2.4447 0.0000 0.0000 0.0000 -28.0734 2.6170 14.4401 0.0759 1.7768 4.8892 0.0331 2.6169 -5.3723 2.8725 -10.4857 -30.5643 0.0000 0.0000 0.0000 8.7704 25.6364 -24.2158 -0.9356 -6.1614 17.2533 0.0471 -9.5514 -12.7664 -0.0942 1.9796 -5.4494 -5.0143 -1.7138 10.2402 -0.3787 -2.8468 1.9594 2.7913 -1.3714 -3.4674 -0.8559 2.2740 -4.5529 0.2431 3.0794 6.1814 0.3403 1.5149 2.7329 0.0000 -0.0000 0.0000 -75.0420 -21.9792 33.3128 18.8516 -29.2339 -4.9582 -0.0000 0.0000 -13.9308 38.5408 11.1727 8.7746 -7.1250 0.0000 -0.0000 10.5284 43.8971 -0.2900 0.0000 -0.0000 0.0000 83.1943 -4.8081 24.1599 -13.7932 22.4384 -2.7487 0.0000 0.0000 16.0375 -19.0981 13.9683 -4.7776 7.1250 -0.0000 -0.0000 5.6917 -15.2821 4.0104
8.9626 17.9659 -21.6850 5.1423 -30.0048 2.3250 0.0000 0.0000 0.0000 -27.7726 2.7002 16.2925 0.0263 1.0479 2.8806 0.0012 2.7848 -4.0503 2.7997 -10.3636 -30.1622 0.0000 0.0000 0.0000 9.0510 24.9214 -24.1218 -0.9011 -6.0496 16.9283 0.0072 -9.3648 -13.2176 -0.1049 2.0885 -5.7503 -4.5603 -2.0206 10.4354 -0.3582 -3.2140 1.9545 2.6127 -1.5544 -3.5743 -1.2320 2.2576 -3.8866 0.5145 3.0564 5.7436 0.4745 1.5059 2.4525 0.0000 0.0000 0.0000 -74.9941 -21.7767 33.3090 19.0368 -29.4643 -5.0489 -0.0000 0.0000 -14.6469 39.1707 9.5513 7.6991 -7.1250 0.0000 -0.0000 10.9741 41.9669 -0.8322 0.0000 0.0000 0.0000 83.1936 -4.9306 24.2368 -13.6689 22.2594 -2.7014 0.0000 0.0000 16.3287 -18.9771 13.5941 -4.6210 7.1250 -0.0000 -0.0000 5.7639 -15.6845 4.0117
8.8522 17.9391 -21.5424 5.2146 -30.4061 1.9663 0.0000 0.0000 0.0000 -27.4290 3.8947 18.4623 0.0000 0.0000 0.0000 -0.0232 2.9458 -2.3283 2.4356 -9.7198 -28.0741 0.0000 0.0000 0.0000 9.4420 25.1952 -23.6408 -0.8875 -6.0050 16.7988 0.0372 -9.4801 -12.8421 -0.0451 1.3700 -3.7674 -4.8468 -1.8378 10.6378 -0.2680 -3.0112 1.9620 2.8508 -1.4483 -3.6738 -1.3952 2.2817 -3.3049 0.5769 3.0859 5.2389 0.5072 1.5217 2.1754 -0.0000 0.0000 0.0000 -75.1496 -21.4546 33.6409 19.2327 -29.7068 -5.1456 -0.0000 0.0000 -15.5312 38.4872 10.5531 8.2849 -7.1250 0.0000 -0.0000 10.4300 43.1241 -0.4885 -0.0000 0.0000 0.0000 83.0789 -5.3289 24.3443 -13.6421 22.2207 -2.6913 0.0000 0.0000 16.2668 -18.9013 13.6808 -4.6298 7.1250 -0.0000 -0.0000 5.8182 -15.6011 4.0604
8.7462 17.9231 -21.3892 5.6338 -30.3910 1.6513 0.0000 0.0000 0.0000 -27.6912 4.1043 19.1097 0.0000 0.0000 0.0000 -0.0222 2.7495 -1.8025 2.5268 -9.8865 -28.6101 0.0000 0.0000 0.0000 9.3796 25.0434 -23.4262 -0.9016 -6.0513 16.9334 0.0774 -9.5505 -12.1793 -0.0135 0.7503 -2.0619 -5.0986 -1.7828 10.4335 -0.3760 -2.9572 2.0367 2.8613 -1.4266 -3.4800 -1.1717 2.3221 -3.4369 0.4688 3.1358 5.2206 0.4386 1.5483 2.1978 -0.0000 0.0000 0.0000 -75.0444 -21.4705 34.3414 19.3090 -29.8008 -5.1835 -0.0000 0.0000 -16.5470 37.5978 11.2560 8.5480 -7.1250 0.0000 -0.0000 9.6465 43.8672 -0.2724 -0.0000 0.0000 0.0000 83.1233 -5.5657 24.3786 -13.6081 22.1717 -2.6784 0.0000 0.0000 16.1336 -18.8305 14.0100 -4.7196 7.1250 -0.0000 -0.0000 5.8759 -15.2644 4.1438
